<svg width="198" height="50" viewBox="0 0 198 50" fill="none" xmlns="http://www.w3.org/2000/svg">
<path d="M59.7102 13.9901V11.4545H71.6562V13.9901H67.2031V26H64.1634V13.9901H59.7102ZM73.6236 26V11.4545H83.4247V13.9901H76.6989V17.456H82.9205V19.9915H76.6989V23.4645H83.4531V26H73.6236ZM88.3768 26H85.0813L90.1026 11.4545H94.0657L99.0799 26H95.7844L92.141 14.7784H92.0273L88.3768 26ZM88.1708 20.2827H95.9549V22.6832H88.1708V20.2827ZM100.831 11.4545H104.623L108.629 21.2273H108.799L112.805 11.4545H116.598V26H113.615V16.5327H113.494L109.73 25.929H107.699L103.934 16.4972H103.814V26H100.831V11.4545Z" fill="#AC2828"/>
<path d="M105.321 44V33.0909H109.007C109.863 33.0909 110.563 33.2454 111.106 33.5543C111.653 33.8597 112.058 34.2734 112.32 34.7955C112.583 35.3175 112.714 35.8999 112.714 36.5426C112.714 37.1854 112.583 37.7695 112.32 38.2951C112.061 38.8207 111.66 39.2397 111.116 39.5522C110.573 39.8612 109.877 40.0156 109.028 40.0156H106.386V38.8438H108.986C109.572 38.8438 110.042 38.7425 110.397 38.5401C110.752 38.3377 111.01 38.0643 111.17 37.7198C111.333 37.3718 111.415 36.9794 111.415 36.5426C111.415 36.1058 111.333 35.7152 111.17 35.3707C111.01 35.0263 110.751 34.7564 110.392 34.5611C110.033 34.3622 109.558 34.2628 108.964 34.2628H106.642V44H105.321ZM114.843 44V33.0909H116.164V42.8281H121.235V44H114.843ZM124.416 44H123.031L127.037 33.0909H128.4L132.406 44H131.021L127.761 34.8168H127.676L124.416 44ZM124.927 39.7386H130.51V40.9105H124.927V39.7386ZM142.756 33.0909V44H141.477L135.533 35.4347H135.426V44H134.105V33.0909H135.384L141.35 41.6776H141.456V33.0909H142.756ZM154.05 33.0909V44H152.771L146.827 35.4347H146.72V44H145.399V33.0909H146.678L152.643 41.6776H152.75V33.0909H154.05ZM158.014 33.0909V44H156.693V33.0909H158.014ZM169.313 33.0909V44H168.035L162.09 35.4347H161.984V44H160.663V33.0909H161.941L167.907 41.6776H168.014V33.0909H169.313ZM179.414 36.5C179.297 36.1413 179.142 35.82 178.951 35.5359C178.763 35.2482 178.537 35.0032 178.274 34.8008C178.015 34.5984 177.72 34.4439 177.39 34.3374C177.06 34.2308 176.698 34.1776 176.303 34.1776C175.657 34.1776 175.069 34.3445 174.54 34.6783C174.011 35.0121 173.59 35.5039 173.278 36.1538C172.965 36.8036 172.809 37.6009 172.809 38.5455C172.809 39.4901 172.967 40.2873 173.283 40.9371C173.599 41.587 174.027 42.0788 174.567 42.4126C175.107 42.7464 175.714 42.9134 176.389 42.9134C177.014 42.9134 177.564 42.7802 178.04 42.5138C178.519 42.244 178.892 41.864 179.158 41.3739C179.428 40.8803 179.563 40.2997 179.563 39.6321L179.968 39.7173H176.687V38.5455H180.842V39.7173C180.842 40.6158 180.65 41.397 180.266 42.0611C179.886 42.7251 179.361 43.2401 178.69 43.6058C178.022 43.968 177.255 44.1491 176.389 44.1491C175.423 44.1491 174.574 43.9219 173.842 43.4673C173.114 43.0128 172.546 42.3665 172.138 41.5284C171.733 40.6903 171.531 39.696 171.531 38.5455C171.531 37.6825 171.646 36.9066 171.877 36.2177C172.111 35.5252 172.441 34.9357 172.868 34.4492C173.294 33.9627 173.798 33.5898 174.38 33.3306C174.963 33.0714 175.604 32.9418 176.303 32.9418C176.879 32.9418 177.415 33.0288 177.912 33.2028C178.413 33.3732 178.858 33.6165 179.249 33.9325C179.643 34.245 179.972 34.6197 180.234 35.0565C180.497 35.4897 180.678 35.9709 180.778 36.5H179.414Z" fill="#306A9F"/>
<g clip-path="url(#clip0_7_26)">
<path d="M50 25C50 38.8071 38.8071 50 25 50C11.1929 50 0 38.8071 0 25C0 11.1929 11.1929 0 25 0C38.8071 0 50 11.1929 50 25Z" fill="#1D2633"/>
<path d="M43.571 31.3833C44.4153 31.3833 45.0158 32.2038 44.6983 32.9861C41.5416 40.7646 33.9114 46.25 25 46.25C16.0886 46.25 8.45834 40.7646 5.30167 32.9861C4.98419 32.2038 5.5847 31.3833 6.42896 31.3833H43.571Z" fill="#EDEBDE"/>
<path d="M44.6983 17.0139C45.0158 17.7962 44.4153 18.6167 43.571 18.6167H6.42896C5.5847 18.6167 4.98419 17.7962 5.30167 17.0139C8.45833 9.23544 16.0886 3.75 25 3.75C33.9114 3.75 41.5416 9.23544 44.6983 17.0139Z" fill="#EDEBDE"/>
<path d="M43.6481 23.2187C45.0526 23.2187 45.7304 24.1986 45.7304 25.3336V27.4648H44.2606V25.5868C44.2606 25.0723 44.0727 24.6477 43.5338 24.6477C42.9949 24.6477 42.8152 25.0723 42.8152 25.5868V27.4648H41.3454V25.5868C41.3454 25.0723 41.1658 24.6477 40.6269 24.6477C40.0879 24.6477 39.9001 25.0723 39.9001 25.5868V27.4648H38.4303V25.3336C38.4303 24.1986 39.108 23.2187 40.5125 23.2187C41.2801 23.2187 41.8354 23.5208 42.0885 24.0189C42.358 23.5208 42.9459 23.2187 43.6481 23.2187Z" fill="#EDEBDE"/>
<path d="M35.7892 26.1583C36.2628 26.1583 36.4669 25.7256 36.4669 25.2111V23.382H37.9367V25.3908C37.9367 26.5911 37.2345 27.5873 35.7892 27.5873C34.3439 27.5873 33.6417 26.5911 33.6417 25.3908V23.382H35.1114V25.2111C35.1114 25.7256 35.3156 26.1583 35.7892 26.1583Z" fill="#EDEBDE"/>
<path d="M31.4804 27.5955C30.5577 27.5955 29.9616 27.277 29.6105 26.6565L30.672 26.0603C30.819 26.3217 31.0395 26.4523 31.4069 26.4523C31.709 26.4523 31.8478 26.3462 31.8478 26.2155C31.8478 25.7174 29.6922 26.2237 29.6922 24.6395C29.6922 23.872 30.3454 23.2514 31.4559 23.2514C32.4277 23.2514 32.9584 23.725 33.1952 24.1823L32.1337 24.7865C32.0438 24.5415 31.7662 24.3946 31.4886 24.3946C31.2763 24.3946 31.162 24.4844 31.162 24.6069C31.162 25.1132 33.3177 24.6477 33.3177 26.1828C33.3177 27.0402 32.4767 27.5955 31.4804 27.5955Z" fill="#EDEBDE"/>
<path d="M26.3452 29.3429H24.8754V25.4153C24.8754 24.166 25.8145 23.2595 27.121 23.2595C28.3948 23.2595 29.3665 24.2313 29.3665 25.4153C29.3665 26.7218 28.501 27.5873 27.2026 27.5873C26.9005 27.5873 26.5984 27.4975 26.3452 27.3586V29.3429ZM27.121 26.2073C27.5864 26.2073 27.8967 25.848 27.8967 25.4235C27.8967 24.9906 27.5864 24.6395 27.121 24.6395C26.6556 24.6395 26.3452 24.9906 26.3452 25.4235C26.3452 25.848 26.6556 26.2073 27.121 26.2073Z" fill="#EDEBDE"/>
<path d="M23.4031 22.9492C22.9213 22.9492 22.5212 22.5491 22.5212 22.0674C22.5212 21.5855 22.9213 21.1854 23.4031 21.1854C23.8849 21.1854 24.285 21.5855 24.285 22.0674C24.285 22.5491 23.8849 22.9492 23.4031 22.9492ZM22.6682 23.382H24.138V27.4648H22.6682V23.382Z" fill="#EDEBDE"/>
<path d="M19.8482 27.5873C18.5743 27.5873 17.6026 26.6075 17.6026 25.4153C17.6026 24.2313 18.5743 23.2514 19.8482 23.2514C21.122 23.2514 22.0937 24.2313 22.0937 25.4153C22.0937 26.6075 21.122 27.5873 19.8482 27.5873ZM19.8482 26.2073C20.3136 26.2073 20.6239 25.848 20.6239 25.4235C20.6239 24.9907 20.3136 24.6314 19.8482 24.6314C19.3827 24.6314 19.0724 24.9907 19.0724 25.4235C19.0724 25.848 19.3827 26.2073 19.8482 26.2073Z" fill="#EDEBDE"/>
<path d="M14.8273 29.4654C13.8147 29.4654 13.0798 29.0163 12.7042 28.2161L13.9209 27.5628C14.0515 27.8405 14.2965 28.1263 14.8028 28.1263C15.3335 28.1263 15.6847 27.7915 15.7255 27.2035C15.5295 27.375 15.2192 27.5056 14.7538 27.5056C13.6188 27.5056 12.7042 26.632 12.7042 25.4071C12.7042 24.2231 13.6759 23.2595 14.9498 23.2595C16.2562 23.2595 17.1953 24.166 17.1953 25.4153V27.0321C17.1953 28.5018 16.1746 29.4654 14.8273 29.4654ZM14.9253 26.1256C15.3662 26.1256 15.701 25.8235 15.701 25.3745C15.701 24.9335 15.3662 24.6395 14.9253 24.6395C14.4925 24.6395 14.1495 24.9335 14.1495 25.3745C14.1495 25.8235 14.4925 26.1256 14.9253 26.1256Z" fill="#EDEBDE"/>
<path d="M10.2109 27.5873C8.93708 27.5873 7.96533 26.6075 7.96533 25.4153C7.96533 24.2313 8.93708 23.2514 10.2109 23.2514C11.4847 23.2514 12.4565 24.2313 12.4565 25.4153C12.4565 26.6075 11.4847 27.5873 10.2109 27.5873ZM10.2109 26.2073C10.6763 26.2073 10.9866 25.848 10.9866 25.4235C10.9866 24.9907 10.6763 24.6314 10.2109 24.6314C9.74546 24.6314 9.43514 24.9907 9.43514 25.4235C9.43514 25.848 9.74546 26.2073 10.2109 26.2073Z" fill="#EDEBDE"/>
<path d="M5.28889 21.9531V26.0767H7.72222V27.4648H5.08475C4.15387 27.4648 3.77826 26.9749 3.77826 26.1991V21.9531H5.28889Z" fill="#EDEBDE"/>
<path d="M21.2499 4.07984C22.4673 3.86309 23.7204 3.75 25 3.75C26.2796 3.75 27.5327 3.86309 28.7499 4.07983V18.6167H21.2499V4.07984Z" fill="#AC2828"/>
<path d="M28.7502 31.3833H21.2495C21.2338 34.6445 20.6396 37.8774 19.4943 40.9316L17.949 45.0522C20.1553 45.8281 22.5283 46.25 24.9999 46.25C27.4714 46.25 29.8444 45.8281 32.0507 45.0522L30.5055 40.9316C29.3602 37.8774 28.766 34.6445 28.7502 31.3833Z" fill="#AC2828"/>
<path d="M28.75 4.07983C31.463 4.56289 33.9979 5.56078 36.25 6.96889V18.6167H28.75V4.07983Z" fill="#306A9F"/>
<path d="M32.0508 45.0522C35.4617 43.8529 38.4743 41.808 40.8369 39.169L40.4682 38.9344C37.8785 37.2863 36.2956 34.4467 36.2509 31.3833H28.7503C28.7661 34.6445 29.3602 37.8774 30.5056 40.9316L32.0508 45.0522Z" fill="#306A9F"/>
<path d="M13.7499 6.96889C16.002 5.56078 18.5369 4.56289 21.2499 4.07983V18.6167H13.7499V6.96889Z" fill="#DEB038"/>
<path d="M13.749 31.3833H21.2496C21.2339 34.6306 20.6447 37.8497 19.509 40.8925L17.9491 45.0522C14.5382 43.8529 11.5256 41.808 9.1629 39.169L9.53159 38.9344C12.1213 37.2863 13.7043 34.4467 13.749 31.3833Z" fill="#DEB038"/>
</g>
<defs>
<clipPath id="clip0_7_26">
<rect width="50" height="50" fill="white"/>
</clipPath>
</defs>
</svg>
