<svg width="180" height="50" viewBox="0 0 180 50" fill="none" xmlns="http://www.w3.org/2000/svg">
<path d="M60.7614 26V11.4545H65.6761C66.8172 11.4545 67.75 11.6605 68.4744 12.0724C69.2036 12.4796 69.7434 13.0312 70.0938 13.7273C70.4441 14.4233 70.6193 15.1998 70.6193 16.0568C70.6193 16.9138 70.4441 17.6927 70.0938 18.3935C69.7481 19.0942 69.2131 19.6529 68.4886 20.0696C67.7642 20.4815 66.8362 20.6875 65.7045 20.6875H62.1818V19.125H65.6477C66.429 19.125 67.0563 18.9901 67.5298 18.7202C68.0033 18.4503 68.3466 18.0857 68.5597 17.6264C68.7775 17.1624 68.8864 16.6392 68.8864 16.0568C68.8864 15.4744 68.7775 14.9536 68.5597 14.4943C68.3466 14.035 68.0009 13.6752 67.5227 13.4148C67.0445 13.1496 66.41 13.017 65.6193 13.017H62.5227V26H60.7614ZM73.4567 26V11.4545H75.218V24.4375H81.9794V26H73.4567ZM86.2212 26H84.3746L89.7156 11.4545H91.5337L96.8746 26H95.0281L90.6815 13.7557H90.5678L86.2212 26ZM86.9031 20.3182H94.3462V21.8807H86.9031V20.3182ZM110.674 11.4545V26H108.97L101.044 14.5795H100.902V26H99.1403V11.4545H100.845L108.799 22.9034H108.941V11.4545H110.674ZM125.733 11.4545V26H124.028L116.102 14.5795H115.96V26H114.199V11.4545H115.903L123.858 22.9034H124V11.4545H125.733ZM131.019 11.4545V26H129.257V11.4545H131.019ZM146.085 11.4545V26H144.38L136.454 14.5795H136.312V26H134.55V11.4545H136.255L144.21 22.9034H144.352V11.4545H146.085ZM159.552 16C159.396 15.5218 159.19 15.0933 158.934 14.7145C158.683 14.331 158.383 14.0043 158.032 13.7344C157.687 13.4645 157.294 13.2585 156.853 13.1165C156.413 12.9744 155.93 12.9034 155.404 12.9034C154.543 12.9034 153.759 13.1259 153.054 13.571C152.348 14.0161 151.787 14.6719 151.37 15.5384C150.954 16.4048 150.745 17.4678 150.745 18.7273C150.745 19.9867 150.956 21.0497 151.377 21.9162C151.799 22.7827 152.369 23.4384 153.089 23.8835C153.809 24.3286 154.618 24.5511 155.518 24.5511C156.351 24.5511 157.085 24.3736 157.72 24.0185C158.359 23.6586 158.856 23.152 159.211 22.4986C159.571 21.8404 159.751 21.0663 159.751 20.1761L160.291 20.2898H155.916V18.7273H161.456V20.2898C161.456 21.4877 161.2 22.5294 160.689 23.4148C160.182 24.3002 159.481 24.9867 158.586 25.4744C157.696 25.9574 156.673 26.1989 155.518 26.1989C154.23 26.1989 153.099 25.8958 152.123 25.2898C151.153 24.6837 150.395 23.822 149.85 22.7045C149.311 21.5871 149.041 20.2614 149.041 18.7273C149.041 17.5767 149.195 16.5421 149.502 15.6236C149.815 14.7003 150.255 13.9143 150.824 13.2656C151.392 12.617 152.064 12.1198 152.841 11.7741C153.617 11.4285 154.472 11.2557 155.404 11.2557C156.172 11.2557 156.886 11.3717 157.549 11.6037C158.217 11.831 158.811 12.1553 159.332 12.5767C159.858 12.9934 160.296 13.4929 160.646 14.0753C160.996 14.6529 161.238 15.2945 161.37 16H159.552Z" fill="#AC2828"/>
<path d="M105.321 44V33.0909H111.905V34.2628H106.642V37.9489H111.564V39.1207H106.642V42.8281H111.99V44H105.321ZM108.027 31.983L109.327 29.5114H110.797L109.135 31.983H108.027ZM118.249 40.5909H119.698L120.912 42.1889L121.232 42.6151L123.043 45.0227H121.594L120.401 43.4247L120.103 43.0199L118.249 40.5909ZM123.49 38.5455C123.49 39.696 123.283 40.6903 122.867 41.5284C122.452 42.3665 121.882 43.0128 121.157 43.4673C120.433 43.9219 119.605 44.1491 118.675 44.1491C117.745 44.1491 116.917 43.9219 116.193 43.4673C115.468 43.0128 114.898 42.3665 114.483 41.5284C114.067 40.6903 113.86 39.696 113.86 38.5455C113.86 37.3949 114.067 36.4006 114.483 35.5625C114.898 34.7244 115.468 34.0781 116.193 33.6236C116.917 33.169 117.745 32.9418 118.675 32.9418C119.605 32.9418 120.433 33.169 121.157 33.6236C121.882 34.0781 122.452 34.7244 122.867 35.5625C123.283 36.4006 123.49 37.3949 123.49 38.5455ZM122.212 38.5455C122.212 37.6009 122.054 36.8036 121.738 36.1538C121.425 35.5039 121.001 35.0121 120.465 34.6783C119.932 34.3445 119.336 34.1776 118.675 34.1776C118.015 34.1776 117.416 34.3445 116.88 34.6783C116.347 35.0121 115.923 35.5039 115.607 36.1538C115.294 36.8036 115.138 37.6009 115.138 38.5455C115.138 39.4901 115.294 40.2873 115.607 40.9371C115.923 41.587 116.347 42.0788 116.88 42.4126C117.416 42.7464 118.015 42.9134 118.675 42.9134C119.336 42.9134 119.932 42.7464 120.465 42.4126C121.001 42.0788 121.425 41.587 121.738 40.9371C122.054 40.2873 122.212 39.4901 122.212 38.5455ZM132.871 33.0909H134.192V40.3139C134.192 41.0597 134.016 41.7255 133.664 42.3114C133.316 42.8938 132.825 43.3537 132.189 43.6911C131.553 44.0249 130.808 44.1918 129.952 44.1918C129.096 44.1918 128.35 44.0249 127.714 43.6911C127.079 43.3537 126.585 42.8938 126.234 42.3114C125.886 41.7255 125.712 41.0597 125.712 40.3139V33.0909H127.033V40.2074C127.033 40.7401 127.15 41.2141 127.384 41.6296C127.619 42.0415 127.952 42.3665 128.386 42.6044C128.822 42.8388 129.344 42.956 129.952 42.956C130.559 42.956 131.081 42.8388 131.518 42.6044C131.955 42.3665 132.288 42.0415 132.519 41.6296C132.754 41.2141 132.871 40.7401 132.871 40.2074V33.0909ZM138.151 33.0909V44H136.83V33.0909H138.151ZM140.8 44V33.0909H144.486C145.341 33.0909 146.041 33.2454 146.584 33.5543C147.131 33.8597 147.536 34.2734 147.799 34.7955C148.062 35.3175 148.193 35.8999 148.193 36.5426C148.193 37.1854 148.062 37.7695 147.799 38.2951C147.54 38.8207 147.138 39.2397 146.595 39.5522C146.052 39.8612 145.356 40.0156 144.507 40.0156H141.865V38.8438H144.464C145.05 38.8438 145.521 38.7425 145.876 38.5401C146.231 38.3377 146.488 38.0643 146.648 37.7198C146.812 37.3718 146.893 36.9794 146.893 36.5426C146.893 36.1058 146.812 35.7152 146.648 35.3707C146.488 35.0263 146.229 34.7564 145.871 34.5611C145.512 34.3622 145.036 34.2628 144.443 34.2628H142.121V44H140.8ZM150.321 44V33.0909H156.905V34.2628H151.642V37.9489H156.564V39.1207H151.642V42.8281H156.99V44H150.321ZM165.252 35.8182C165.188 35.2784 164.929 34.8594 164.474 34.5611C164.02 34.2628 163.462 34.1136 162.801 34.1136C162.319 34.1136 161.896 34.1918 161.534 34.348C161.175 34.5043 160.895 34.7191 160.692 34.9925C160.493 35.266 160.394 35.5767 160.394 35.9247C160.394 36.2159 160.463 36.4663 160.602 36.6758C160.744 36.8817 160.925 37.054 161.145 37.1925C161.365 37.3274 161.596 37.4393 161.837 37.5281C162.079 37.6133 162.301 37.6825 162.503 37.7358L163.611 38.0341C163.895 38.1087 164.211 38.2116 164.559 38.343C164.911 38.4744 165.246 38.6538 165.566 38.881C165.889 39.1048 166.156 39.3924 166.365 39.744C166.575 40.0955 166.679 40.527 166.679 41.0384C166.679 41.6278 166.525 42.1605 166.216 42.6364C165.911 43.1122 165.463 43.4904 164.874 43.771C164.288 44.0515 163.576 44.1918 162.738 44.1918C161.956 44.1918 161.28 44.0657 160.708 43.8136C160.14 43.5614 159.692 43.2099 159.366 42.7589C159.043 42.3079 158.86 41.7841 158.817 41.1875H160.181C160.216 41.5994 160.355 41.9403 160.596 42.2102C160.841 42.4766 161.15 42.6754 161.523 42.8068C161.9 42.9347 162.304 42.9986 162.738 42.9986C163.242 42.9986 163.695 42.9169 164.096 42.7536C164.497 42.5866 164.815 42.3558 165.049 42.0611C165.284 41.7628 165.401 41.4148 165.401 41.017C165.401 40.6548 165.3 40.3601 165.097 40.1328C164.895 39.9055 164.629 39.7209 164.298 39.5788C163.968 39.4368 163.611 39.3125 163.228 39.206L161.885 38.8224C161.033 38.5774 160.358 38.2276 159.861 37.7731C159.364 37.3185 159.115 36.7237 159.115 35.9886C159.115 35.3778 159.281 34.8452 159.611 34.3906C159.945 33.9325 160.392 33.5774 160.953 33.3253C161.518 33.0696 162.148 32.9418 162.844 32.9418C163.547 32.9418 164.172 33.0678 164.719 33.32C165.266 33.5685 165.699 33.9094 166.019 34.3427C166.342 34.7759 166.512 35.2678 166.53 35.8182H165.252Z" fill="#306A9F"/>
<g clip-path="url(#clip0_7_26)">
<path d="M50 25C50 38.8071 38.8071 50 25 50C11.1929 50 0 38.8071 0 25C0 11.1929 11.1929 0 25 0C38.8071 0 50 11.1929 50 25Z" fill="#1D2633"/>
<path d="M43.571 31.3833C44.4153 31.3833 45.0158 32.2038 44.6983 32.9861C41.5416 40.7646 33.9114 46.25 25 46.25C16.0886 46.25 8.45834 40.7646 5.30167 32.9861C4.98419 32.2038 5.5847 31.3833 6.42896 31.3833H43.571Z" fill="#EDEBDE"/>
<path d="M44.6983 17.0139C45.0158 17.7962 44.4153 18.6167 43.571 18.6167H6.42896C5.5847 18.6167 4.98419 17.7962 5.30167 17.0139C8.45833 9.23544 16.0886 3.75 25 3.75C33.9114 3.75 41.5416 9.23544 44.6983 17.0139Z" fill="#EDEBDE"/>
<path d="M43.6481 23.2187C45.0526 23.2187 45.7304 24.1986 45.7304 25.3336V27.4648H44.2606V25.5868C44.2606 25.0723 44.0727 24.6477 43.5338 24.6477C42.9949 24.6477 42.8152 25.0723 42.8152 25.5868V27.4648H41.3454V25.5868C41.3454 25.0723 41.1658 24.6477 40.6269 24.6477C40.0879 24.6477 39.9001 25.0723 39.9001 25.5868V27.4648H38.4303V25.3336C38.4303 24.1986 39.108 23.2187 40.5125 23.2187C41.2801 23.2187 41.8354 23.5208 42.0885 24.0189C42.358 23.5208 42.9459 23.2187 43.6481 23.2187Z" fill="#EDEBDE"/>
<path d="M35.7892 26.1583C36.2628 26.1583 36.4669 25.7256 36.4669 25.2111V23.382H37.9367V25.3908C37.9367 26.5911 37.2345 27.5873 35.7892 27.5873C34.3439 27.5873 33.6417 26.5911 33.6417 25.3908V23.382H35.1114V25.2111C35.1114 25.7256 35.3156 26.1583 35.7892 26.1583Z" fill="#EDEBDE"/>
<path d="M31.4804 27.5955C30.5577 27.5955 29.9616 27.277 29.6105 26.6565L30.672 26.0603C30.819 26.3217 31.0395 26.4523 31.4069 26.4523C31.709 26.4523 31.8478 26.3462 31.8478 26.2155C31.8478 25.7174 29.6922 26.2237 29.6922 24.6395C29.6922 23.872 30.3454 23.2514 31.4559 23.2514C32.4277 23.2514 32.9584 23.725 33.1952 24.1823L32.1337 24.7865C32.0438 24.5415 31.7662 24.3946 31.4886 24.3946C31.2763 24.3946 31.162 24.4844 31.162 24.6069C31.162 25.1132 33.3177 24.6477 33.3177 26.1828C33.3177 27.0402 32.4767 27.5955 31.4804 27.5955Z" fill="#EDEBDE"/>
<path d="M26.3452 29.3429H24.8754V25.4153C24.8754 24.166 25.8145 23.2595 27.121 23.2595C28.3948 23.2595 29.3665 24.2313 29.3665 25.4153C29.3665 26.7218 28.501 27.5873 27.2026 27.5873C26.9005 27.5873 26.5984 27.4975 26.3452 27.3586V29.3429ZM27.121 26.2073C27.5864 26.2073 27.8967 25.848 27.8967 25.4235C27.8967 24.9906 27.5864 24.6395 27.121 24.6395C26.6556 24.6395 26.3452 24.9906 26.3452 25.4235C26.3452 25.848 26.6556 26.2073 27.121 26.2073Z" fill="#EDEBDE"/>
<path d="M23.4031 22.9492C22.9213 22.9492 22.5212 22.5491 22.5212 22.0674C22.5212 21.5855 22.9213 21.1854 23.4031 21.1854C23.8849 21.1854 24.285 21.5855 24.285 22.0674C24.285 22.5491 23.8849 22.9492 23.4031 22.9492ZM22.6682 23.382H24.138V27.4648H22.6682V23.382Z" fill="#EDEBDE"/>
<path d="M19.8482 27.5873C18.5743 27.5873 17.6026 26.6075 17.6026 25.4153C17.6026 24.2313 18.5743 23.2514 19.8482 23.2514C21.122 23.2514 22.0937 24.2313 22.0937 25.4153C22.0937 26.6075 21.122 27.5873 19.8482 27.5873ZM19.8482 26.2073C20.3136 26.2073 20.6239 25.848 20.6239 25.4235C20.6239 24.9907 20.3136 24.6314 19.8482 24.6314C19.3827 24.6314 19.0724 24.9907 19.0724 25.4235C19.0724 25.848 19.3827 26.2073 19.8482 26.2073Z" fill="#EDEBDE"/>
<path d="M14.8273 29.4654C13.8147 29.4654 13.0798 29.0163 12.7042 28.2161L13.9209 27.5628C14.0515 27.8405 14.2965 28.1263 14.8028 28.1263C15.3335 28.1263 15.6847 27.7915 15.7255 27.2035C15.5295 27.375 15.2192 27.5056 14.7538 27.5056C13.6188 27.5056 12.7042 26.632 12.7042 25.4071C12.7042 24.2231 13.6759 23.2595 14.9498 23.2595C16.2562 23.2595 17.1953 24.166 17.1953 25.4153V27.0321C17.1953 28.5018 16.1746 29.4654 14.8273 29.4654ZM14.9253 26.1256C15.3662 26.1256 15.701 25.8235 15.701 25.3745C15.701 24.9335 15.3662 24.6395 14.9253 24.6395C14.4925 24.6395 14.1495 24.9335 14.1495 25.3745C14.1495 25.8235 14.4925 26.1256 14.9253 26.1256Z" fill="#EDEBDE"/>
<path d="M10.2109 27.5873C8.93708 27.5873 7.96533 26.6075 7.96533 25.4153C7.96533 24.2313 8.93708 23.2514 10.2109 23.2514C11.4847 23.2514 12.4565 24.2313 12.4565 25.4153C12.4565 26.6075 11.4847 27.5873 10.2109 27.5873ZM10.2109 26.2073C10.6763 26.2073 10.9866 25.848 10.9866 25.4235C10.9866 24.9907 10.6763 24.6314 10.2109 24.6314C9.74546 24.6314 9.43514 24.9907 9.43514 25.4235C9.43514 25.848 9.74546 26.2073 10.2109 26.2073Z" fill="#EDEBDE"/>
<path d="M5.28889 21.9531V26.0767H7.72222V27.4648H5.08475C4.15387 27.4648 3.77826 26.9749 3.77826 26.1991V21.9531H5.28889Z" fill="#EDEBDE"/>
<path d="M21.2499 4.07984C22.4673 3.86309 23.7204 3.75 25 3.75C26.2796 3.75 27.5327 3.86309 28.7499 4.07983V18.6167H21.2499V4.07984Z" fill="#AC2828"/>
<path d="M28.7502 31.3833H21.2495C21.2338 34.6445 20.6396 37.8774 19.4943 40.9316L17.949 45.0522C20.1553 45.8281 22.5283 46.25 24.9999 46.25C27.4714 46.25 29.8444 45.8281 32.0507 45.0522L30.5055 40.9316C29.3602 37.8774 28.766 34.6445 28.7502 31.3833Z" fill="#AC2828"/>
<path d="M28.75 4.07983C31.463 4.56289 33.9979 5.56078 36.25 6.96889V18.6167H28.75V4.07983Z" fill="#306A9F"/>
<path d="M32.0508 45.0522C35.4617 43.8529 38.4743 41.808 40.8369 39.169L40.4682 38.9344C37.8785 37.2863 36.2956 34.4467 36.2509 31.3833H28.7503C28.7661 34.6445 29.3602 37.8774 30.5056 40.9316L32.0508 45.0522Z" fill="#306A9F"/>
<path d="M13.7499 6.96889C16.002 5.56078 18.5369 4.56289 21.2499 4.07983V18.6167H13.7499V6.96889Z" fill="#DEB038"/>
<path d="M13.749 31.3833H21.2496C21.2339 34.6306 20.6447 37.8497 19.509 40.8925L17.9491 45.0522C14.5382 43.8529 11.5256 41.808 9.1629 39.169L9.53159 38.9344C12.1213 37.2863 13.7043 34.4467 13.749 31.3833Z" fill="#DEB038"/>
</g>
<defs>
<clipPath id="clip0_7_26">
<rect width="50" height="50" fill="white"/>
</clipPath>
</defs>
</svg>
